<svg version="1.1" xmlns="http://www.w3.org/2000/svg" xmlns:xlink="http://www.w3.org/1999/xlink" width="803.3033" height="746.24625" viewBox="0,0,803.3033,746.24625"><g transform="translate(152.64264,112.34234)"><g data-paper-data="{&quot;isPaintingLayer&quot;:true}" fill-rule="nonzero" stroke="none" stroke-linecap="butt" stroke-linejoin="miter" stroke-miterlimit="10" stroke-dasharray="" stroke-dashoffset="0" style="mix-blend-mode: normal"><path d="M-152.64264,633.90391v-746.24625h803.3033v746.24625z" fill="#ffffff" stroke-width="0"/><text transform="translate(185.1952,93.36337) scale(0.5,0.5)" font-size="40" xml:space="preserve" fill="#0024ff" fill-rule="nonzero" stroke="none" stroke-width="1" stroke-linecap="butt" stroke-linejoin="miter" stroke-miterlimit="10" stroke-dasharray="" stroke-dashoffset="0" font-family="Pixel" font-weight="normal" text-anchor="start" style="mix-blend-mode: normal"><tspan x="0" dy="0">sound test</tspan></text><path d="M89.14857,22.72413c1.11807,2.23605 -1.11798,3.35412 -1.11798,3.35412l-3.34626,1.67114c-2.77862,1.666 -5.14939,4.05696 -8.13047,5.32558c-0.59272,0.25224 -1.39932,-0.74679 -1.90169,-0.3436c-0.61805,0.49602 0.01257,1.75606 -0.55164,2.31256c-0.08338,0.08224 -0.17342,0.15388 -0.26885,0.21701c8.15594,0.75733 15.68522,3.51626 23.83148,4.99169c10.17028,1.84201 20.9844,0.81513 31.27337,0.81513h0.85763c0,0 2.5,0 2.5,2.5c0,2.5 -2.5,2.5 -2.5,2.5h-0.85763c-10.609,0 -21.70434,0.99597 -32.19147,-0.90014c-6.40857,-1.15869 -12.45368,-3.20404 -18.73719,-4.32121c3.17243,1.84376 6.31321,3.70809 9.43376,5.78702l1.11325,2.93776c0,0 0,2.5 -2.5,2.5c-1.75606,0 -2.27862,-1.23349 -2.43412,-1.96761c-5.24546,-3.41458 -10.56748,-6.2755 -16.00478,-9.53788c0,0 -0.84452,-0.50671 -1.15539,-1.41412c-0.33785,-0.11356 -0.68963,-0.32533 -1.0414,-0.67711c-1.76777,-1.76777 0,-3.53553 0,-3.53553c1.00878,-0.97725 1.85771,-2.15267 3.02634,-2.93176c0.60389,-0.40259 1.61006,0.01822 2.11946,-0.49877c0.71657,-0.72725 0.33537,-2.23628 1.16362,-2.83324c0.88217,-0.63581 2.24568,0.08724 3.24411,-0.3436c2.70341,-1.16657 4.78118,-3.4496 7.30552,-4.96517l3.5162,-1.76023c0,0 2.23605,-1.11807 3.35412,1.11798z" fill="#9966ff" stroke-width="0.5"/><text transform="translate(142.65866,49.57119) scale(0.5,0.5)" font-size="40" xml:space="preserve" fill="#9966ff" fill-rule="nonzero" stroke="none" stroke-width="1" stroke-linecap="butt" stroke-linejoin="miter" stroke-miterlimit="10" stroke-dasharray="" stroke-dashoffset="0" font-family="Pixel" font-weight="normal" text-anchor="start" style="mix-blend-mode: normal"><tspan x="0" dy="0">all combination  arrows</tspan></text></g></g></svg>